<svg xmlns="http://www.w3.org/2000/svg" xmlns:xlink="http://www.w3.org/1999/xlink" viewBox="0 0 70.15 70"><defs><clipPath id="clip-path" transform="translate(0.34 1.61)"><path d="M32.66,0A32.66,32.66,0,1,0,65.32,32.66,32.66,32.66,0,0,0,32.66,0Zm0,52.65a20,20,0,1,1,20-20A20,20,0,0,1,32.66,52.65Z" style="fill:none"/></clipPath><linearGradient id="linear-gradient" x1="28.73" y1="15.89" x2="34.81" y2="15.89" gradientUnits="userSpaceOnUse"><stop offset="0" stop-color="#a998ec"/><stop offset="0.49" stop-color="#ab99ec" stop-opacity="0.99"/><stop offset="0.67" stop-color="#b39fec" stop-opacity="0.96"/><stop offset="0.8" stop-color="#c0a8ec" stop-opacity="0.91"/><stop offset="0.9" stop-color="#d2b5eb" stop-opacity="0.84"/><stop offset="0.98" stop-color="#eac5eb" stop-opacity="0.75"/><stop offset="0.99" stop-color="#ebc6eb" stop-opacity="0.75"/></linearGradient><linearGradient id="linear-gradient-2" x1="22.27" y1="16.15" x2="34.81" y2="16.15" gradientUnits="userSpaceOnUse"><stop offset="0" stop-color="#354c5b" stop-opacity="0.95"/><stop offset="1" stop-color="#181a3d"/></linearGradient><linearGradient id="linear-gradient-3" x1="15.75" y1="17.05" x2="34.81" y2="17.05" gradientUnits="userSpaceOnUse"><stop offset="0" stop-color="#005db4"/><stop offset="0.18" stop-color="#035fb5"/><stop offset="0.31" stop-color="#0c65b8"/><stop offset="0.43" stop-color="#1d6fbc"/><stop offset="0.54" stop-color="#337ec3"/><stop offset="0.64" stop-color="#5190cc"/><stop offset="0.74" stop-color="#75a7d6"/><stop offset="0.83" stop-color="#a0c2e3"/><stop offset="0.92" stop-color="#d0e1f1"/><stop offset="1" stop-color="#fff"/></linearGradient><linearGradient id="linear-gradient-4" x1="7.61" y1="18.71" x2="34.81" y2="18.71" gradientUnits="userSpaceOnUse"><stop offset="0" stop-color="#1f71e2"/><stop offset="1" stop-color="#18fffb"/></linearGradient><linearGradient id="linear-gradient-5" x1="1.92" y1="22.37" x2="34.81" y2="22.37" gradientUnits="userSpaceOnUse"><stop offset="0" stop-color="#ff0040"/><stop offset="1" stop-color="#ffe41d"/></linearGradient><linearGradient id="linear-gradient-6" x1="-0.34" y1="37.19" x2="34.81" y2="37.19" gradientUnits="userSpaceOnUse"><stop offset="0.03" stop-color="#ed72b3"/><stop offset="0.17" stop-color="#ee76b5"/><stop offset="0.29" stop-color="#ef82bc" stop-opacity="0.99"/><stop offset="0.41" stop-color="#f296c6" stop-opacity="0.99"/><stop offset="0.53" stop-color="#f5b2d5" stop-opacity="0.98"/><stop offset="0.64" stop-color="#fad6e9" stop-opacity="0.96"/><stop offset="0.66" stop-color="#fbdeed" stop-opacity="0.96"/><stop offset="0.75" stop-color="#fce3f0" stop-opacity="0.92"/><stop offset="0.9" stop-color="#fdf2f8" stop-opacity="0.83"/><stop offset="1" stop-color="#fff" stop-opacity="0.75"/></linearGradient><linearGradient id="linear-gradient-7" x1="9.79" y1="41.75" x2="54.95" y2="60.99" gradientUnits="userSpaceOnUse"><stop offset="0" stop-color="#fff" stop-opacity="0.76"/><stop offset="0.04" stop-color="#ccf5f5" stop-opacity="0.81"/><stop offset="0.09" stop-color="#9debeb" stop-opacity="0.85"/><stop offset="0.15" stop-color="#72e3e3" stop-opacity="0.89"/><stop offset="0.21" stop-color="#4edcdc" stop-opacity="0.93"/><stop offset="0.28" stop-color="#31d6d6" stop-opacity="0.95"/><stop offset="0.36" stop-color="#1bd1d1" stop-opacity="0.97"/><stop offset="0.46" stop-color="#0bcece" stop-opacity="0.99"/><stop offset="0.61" stop-color="#02cccc"/><stop offset="1" stop-color="#0cc"/></linearGradient><linearGradient id="linear-gradient-8" x1="34.81" y1="30.22" x2="69.29" y2="30.22" gradientUnits="userSpaceOnUse"><stop offset="0" stop-color="#ff672e"/><stop offset="1" stop-color="#fa8d6e"/></linearGradient></defs><g id="Layer_2" data-name="Layer 2"><g id="Layer_1-2" data-name="Layer 1"><g style="clip-path:url(#clip-path)"><path d="M34.81,33.39,28.73-1.08a36.44,36.44,0,0,1,6.08-.53Z" transform="translate(0.34 1.61)" style="fill:url(#linear-gradient)"/><path d="M34.81,33.39,22.27.71a30.81,30.81,0,0,1,6.46-1.79Z" transform="translate(0.34 1.61)" style="fill:url(#linear-gradient-2)"/><path d="M34.81,33.39,15.75,4A33.62,33.62,0,0,1,22.27.71Z" transform="translate(0.34 1.61)" style="fill:url(#linear-gradient-3)"/><path d="M34.81,33.39l-27.2-22A33.08,33.08,0,0,1,15.75,4Z" transform="translate(0.34 1.61)" style="fill:url(#linear-gradient-4)"/><path d="M34.81,33.39l-32.89-12A34.76,34.76,0,0,1,7.61,11.36Z" transform="translate(0.34 1.61)" style="fill:url(#linear-gradient-5)"/><path d="M34.81,33.39,5.79,53A33.63,33.63,0,0,1,1.92,21.42Z" transform="translate(0.34 1.61)" style="fill:url(#linear-gradient-6)"/><path d="M34.81,33.39,54.88,62.06a35,35,0,0,1-48.74-8.6L5.79,53Z" transform="translate(0.34 1.61)" style="fill:url(#linear-gradient-7)"/><path d="M34.81,33.39v-35a35,35,0,0,1,35,35A33.73,33.73,0,0,1,54.88,62.06Z" transform="translate(0.34 1.61)" style="fill:url(#linear-gradient-8)"/></g></g></g></svg>