<svg xmlns="http://www.w3.org/2000/svg" xmlns:xlink="http://www.w3.org/1999/xlink" width="26" height="26" viewBox="0 0 26 26"><defs><clipPath id="a"><path d="M3,17a3,3,0,0,1-3-3V3A3,3,0,0,1,3,0H21a3,3,0,0,1,3,3V14a3,3,0,0,1-3,3ZM2,3V14a1,1,0,0,0,1,1H21a1,1,0,0,0,1-1V3a1,1,0,0,0-1-1H3A1,1,0,0,0,2,3ZM16,8.5A1.5,1.5,0,1,1,17.5,10,1.5,1.5,0,0,1,16,8.5Z" transform="translate(1 5)" fill="#66c5db"/></clipPath></defs><rect width="26" height="26" fill="none"/><rect width="26" height="26" fill="#66c5db" opacity="0"/><path d="M3,17a3,3,0,0,1-3-3V3A3,3,0,0,1,3,0H21a3,3,0,0,1,3,3V14a3,3,0,0,1-3,3ZM2,3V14a1,1,0,0,0,1,1H21a1,1,0,0,0,1-1V3a1,1,0,0,0-1-1H3A1,1,0,0,0,2,3ZM16,8.5A1.5,1.5,0,1,1,17.5,10,1.5,1.5,0,0,1,16,8.5Z" transform="translate(1 5)" fill="#66c5db"/><g clip-path="url(#a)"><rect width="26" height="26" fill="#66c5db"/></g></svg>