<svg xmlns="http://www.w3.org/2000/svg" viewBox="0 0 14.9 16"><g id="Layer_2" data-name="Layer 2"><g id="Layer_1-2" data-name="Layer 1"><path d="M14.4,13a.49.49,0,0,0,.39-.79,10.13,10.13,0,0,1-.87-1.36c-.91-1.7-1.47-2.58-1.47-4.51V5.26A5.17,5.17,0,0,0,7.44,0a5.07,5.07,0,0,0-5,5.38v1c0,1.93-.57,2.81-1.47,4.51A9.29,9.29,0,0,1,.1,12.21.49.49,0,0,0,.49,13Z" style="fill:#60c2d8"/><path d="M5.45,14h4a0,0,0,0,1,0,0v0a2,2,0,0,1-2,2h0a2,2,0,0,1-2-2v0A0,0,0,0,1,5.45,14Z" style="fill:#60c2d8"/></g></g></svg>