<svg xmlns="http://www.w3.org/2000/svg" width="21.931" height="21.016" viewBox="0 0 21.931 21.016"><g transform="translate(-0.489 -0.5)"><path d="M11.234.485l2.759,5.6,6.17.9a.872.872,0,0,1,.483,1.485L16.18,12.825l1.055,6.155a.87.87,0,0,1-1.262.918l-5.518-2.905L4.936,19.9a.869.869,0,0,1-1.261-.918l1.054-6.155L.264,8.467A.871.871,0,0,1,.746,6.982l6.17-.9L9.675.485A.869.869,0,0,1,11.234.485Z" transform="translate(1 1)" fill="#24febc" stroke="#24febc" stroke-linecap="round" stroke-linejoin="round" stroke-miterlimit="10" stroke-width="1"/></g></svg>