<svg xmlns="http://www.w3.org/2000/svg" xmlns:xlink="http://www.w3.org/1999/xlink" width="24" height="24" viewBox="0 0 24 24"><defs><clipPath id="a"><path d="M0,0H20.114V16.087H0Z" transform="translate(0 0.837)" fill="none"/></clipPath></defs><path d="M0,24H24V0H0Z" fill="none"/><path d="M18.846,5.914a4.18,4.18,0,0,0-.456-.024,5.135,5.135,0,0,0-4.026,1.946L2.568,11a1,1,0,0,1-1.226-.713L.033,5.433A1.014,1.014,0,0,1,.746,4.2L5.26,2.991,16.286.033a1.011,1.011,0,0,1,1.234.712l.638,2.37L18.821,5.6a.824.824,0,0,1,.025.315" transform="translate(0.629 2.461)" fill="#55f3d8" opacity="0.3"/><g transform="translate(0 4.615)"><path d="M0,0H20.114V16.087H0Z" transform="translate(0 0.837)" fill="none"/><g clip-path="url(#a)"><path d="M14.994,4.845a5.141,5.141,0,0,0,4.026,8.342,4.861,4.861,0,0,0,1.095-.124v1.011A2.016,2.016,0,0,1,18.1,16.087H2.012A2.015,2.015,0,0,1,0,14.074V2.013A2.015,2.015,0,0,1,2.012,0H18.1a1.9,1.9,0,0,1,.688.124,2.015,2.015,0,0,1,1.326,1.89v1.01a4.321,4.321,0,0,0-.639-.1,4.18,4.18,0,0,0-.456-.024,5.136,5.136,0,0,0-4.026,1.946" transform="translate(0 0.837)" fill="#bffcf1"/></g></g><path d="M6.9,2.2H2.5l.947-.946A.732.732,0,0,0,2.412.215l-2.2,2.2a.732.732,0,0,0,0,1.036l2.2,2.2A.732.732,0,0,0,3.446,4.606L2.5,3.66H6.9A.732.732,0,0,0,6.9,2.2" transform="translate(16.364 10.566)" fill="#55f3d8"/></svg>